PathFileType	4	(X/Y/Z)	C:/Users/opensim2020/Desktop/walking_exp_matlab/subject03_walking11_straight_02.trc																																																																																																																																								
DataRate	CameraRate	NumFrames	NumMarkers	Units	OrigDataRate	OrigDataStartFrame	OrigNumFrames																																																																																																																																				
100	100	4	46	mm	100	2022	357																																																																																																																																				
Frame#	Time	LFHD			RFHD			LBHD			RBHD			C7			T10			CLAV			STRN			RBAK			LSHO			LUPA			LELB			LFRM			LWRA			LWRB			LFIN			RSHO			RUPA			RELB			RFRM			RWRA			RWRB			RFIN			LASI			RASI			LPSI			RPSI			LTHI			LKNE			LTIB			LANK			LHEE			LTOE			RTHI			RKNE			RTIB			RANK			RHEE			RTOE			*39			*40			*41			*42			*43			*44			*45		
		X1	Y1	Z1	X2	Y2	Z2	X3	Y3	Z3	X4	Y4	Z4	X5	Y5	Z5	X6	Y6	Z6	X7	Y7	Z7	X8	Y8	Z8	X9	Y9	Z9	X10	Y10	Z10	X11	Y11	Z11	X12	Y12	Z12	X13	Y13	Z13	X14	Y14	Z14	X15	Y15	Z15	X16	Y16	Z16	X17	Y17	Z17	X18	Y18	Z18	X19	Y19	Z19	X20	Y20	Z20	X21	Y21	Z21	X22	Y22	Z22	X23	Y23	Z23	X24	Y24	Z24	X25	Y25	Z25	X26	Y26	Z26	X27	Y27	Z27	X28	Y28	Z28	X29	Y29	Z29	X30	Y30	Z30	X31	Y31	Z31	X32	Y32	Z32	X33	Y33	Z33	X34	Y34	Z34	X35	Y35	Z35	X36	Y36	Z36	X37	Y37	Z37	X38	Y38	Z38	X39	Y39	Z39	X40	Y40	Z40	X41	Y41	Z41	X42	Y42	Z42	X43	Y43	Z43	X44	Y44	Z44	X45	Y45	Z45	X46	Y46	Z46
																																																																																																																																											
224	2.23	483.18051	1617.25244	988.35852	471.21091	1610.72559	1120.2373	352.23471	1586.27124	978.20844	344.95682	1578.95105	1108.80359	305.96057	1416.89978	1027.901	276.29358	1100.90466	1023.98749	426.40891	1339.91614	1025.67126	472.05939	1176.66821	1012.81512	256.15698	1235.04224	1120.24231	383.01477	1381.68286	872.24963	394.24759	1186.9646	799.28412	413.06403	1064.55505	788.72919	453.24442	940.64252	791.71466	483.41876	825.81372	824.02594	464.24261	828.05933	771.19733	485.29288	745.51288	784.53662	382.29535	1357.63599	1186.50439	389.75739	1133.8374	1254.92053	410.49213	1022.64313	1266.00696	436.2117	888.17834	1264.25098	472.73376	796.56122	1226.3656	442.03027	787.83008	1270.3031	469.36722	718.45728	1257.52173	434.86057	936.22662	896.19397	454.67233	944.41864	1133.00146	277.75638	957.45886	958.4527	290.80688	973.00012	1106.08411	372.8024	630.91669	845.15045	374.00061	450.94547	862.2002	225.66208	316.58298	877.58765	89.78676	163.8306	932.0744	42.98478	166.87225	977.5412	168.06308	37.07897	947.82111	415.15747	650.74792	1176.94348	441.50357	471.51849	1139.30701	410.08401	283.8046	1142.03088	403.12625	67.50684	1090.72205	359.57086	36.04013	1040.33704	546.52472	32.0763	1070.22034	NaN	NaN	NaN	NaN	NaN	NaN	NaN	NaN	NaN	NaN	NaN	NaN	NaN	NaN	NaN	NaN	NaN	NaN	NaN	NaN	NaN
225	2.24	490.0162	1617.18079	988.80426	478.43637	1610.51172	1120.73315	359.05881	1585.91748	979.03198	352.16278	1578.49988	1109.61621	312.95624	1416.68481	1028.85205	282.72458	1100.81042	1024.99658	433.31323	1339.62061	1026.07263	478.6713	1176.28772	1013.24548	263.38699	1235.09399	1121.82385	388.79556	1381.01709	872.79047	398.48334	1185.94519	799.61487	416.74994	1063.50085	788.96863	456.33615	939.40991	791.72583	486.06607	824.38452	823.80859	466.6763	826.81628	771.02496	487.06677	744.08228	784.21216	390.35156	1357.27087	1187.16138	399.3898	1133.68213	1255.87024	421.01474	1022.66595	1267.00732	447.84158	888.36694	1264.97266	484.57718	796.9516	1226.54541	454.48199	788.11951	1270.8894	482.40552	719.06171	1257.94934	440.77267	935.5235	896.95709	461.35809	944.41595	1133.88416	283.90698	956.46051	959.44379	297.25571	972.94238	1107.09448	382.65378	630.45367	844.72064	388.65656	450.51303	860.93298	238.98395	318.32693	877.43628	101.6347	167.70351	932.68182	55.28606	170.55371	979.43958	178.17944	40.12162	943.51147	420.90823	650.66644	1177.7146	445.8844	471.25266	1139.85779	412.77057	283.68396	1142.31128	403.30405	67.57195	1090.59082	359.61548	36.20814	1040.29102	546.63733	31.986	1070.13049	NaN	NaN	NaN	409.69751	1684.12573	1041.2981	NaN	NaN	NaN	NaN	NaN	NaN	NaN	NaN	NaN	NaN	NaN	NaN	NaN	NaN	NaN
226	2.25	496.80905	1617.07483	989.17188	485.62958	1610.37952	1121.12329	365.81061	1585.67456	979.72668	359.40436	1578.14307	1110.39233	319.80856	1416.62109	1030.02454	289.13602	1100.68726	1025.8335	440.11938	1339.37195	1026.42297	485.11661	1175.87122	1013.60974	270.45218	1235.15991	1123.20325	394.7619	1380.31042	873.18298	402.42834	1185.02026	799.87384	420.39331	1062.52551	789.05597	459.34174	938.19995	791.6571	488.26236	822.92407	823.64502	468.94699	825.57434	770.86462	488.9917	742.80255	783.84821	398.3176	1357.04163	1187.71643	409.13007	1133.55981	1256.7334	431.71387	1022.68146	1267.79724	459.52341	888.59534	1265.56433	496.38309	797.46887	1226.76086	467.03763	788.47858	1271.58618	495.43442	719.69202	1258.42175	446.69684	934.90216	897.54871	467.93781	944.29706	1134.71863	289.86456	955.51855	960.51227	303.67188	972.6991	1108.06555	392.49744	630.37701	844.45801	403.00394	450.49707	859.66858	252.5874	320.1991	877.60889	114.11286	171.17766	933.40338	68.37309	173.21707	980.97491	190.85452	43.36722	938.75397	426.70395	650.54089	1178.46509	450.27637	470.99002	1140.21411	415.60538	283.55069	1142.46912	403.62503	67.60161	1090.44409	359.73398	36.359	1040.2511	546.80469	31.927	1070.05518	NaN	NaN	NaN	NaN	NaN	NaN	NaN	NaN	NaN	NaN	NaN	NaN	NaN	NaN	NaN	NaN	NaN	NaN	NaN	NaN	NaN
227	2.26	503.59042	1617.00513	989.44446	492.83243	1610.19971	1121.38965	372.43579	1585.5498	980.77985	366.59277	1577.85413	1110.99683	326.69421	1416.61792	1030.79688	295.24799	1100.70044	1026.84583	446.81818	1339.13928	1026.73877	491.41721	1175.547	1013.94055	277.35245	1235.31116	1124.44446	400.58258	1379.73303	873.53394	406.06061	1184.11926	800.04041	423.73795	1061.54297	789.0351	462.15427	937.05646	791.56653	490.89969	821.78638	823.36035	471.17441	824.47137	770.76001	491.12057	741.79175	783.41608	406.15851	1356.84851	1188.23853	418.85223	1133.51489	1257.43713	442.42642	1022.81342	1268.58411	471.28613	888.90704	1266.10718	508.26468	798.17657	1226.98438	479.54333	788.86237	1272.15967	508.48901	720.46271	1258.83557	452.56702	934.55493	898.19897	474.45343	944.03613	1135.73267	295.74509	954.71857	961.55798	310.04236	972.36877	1109.14258	402.18344	630.72546	844.32544	417.40997	450.99719	858.69385	266.44238	322.04153	877.63196	127.64921	173.48329	933.69415	82.14719	174.85849	981.90277	204.33713	45.9483	935.36932	432.42688	650.33551	1179.0376	454.74091	470.71069	1140.50146	418.45218	283.41678	1142.51135	403.86569	67.744	1090.31702	359.84134	36.58728	1040.20813	546.98419	31.82878	1069.96509	NaN	NaN	NaN	NaN	NaN	NaN	NaN	NaN	NaN	NaN	NaN	NaN	NaN	NaN	NaN	NaN	NaN	NaN	NaN	NaN	NaN
